<?xml version="1.0" standalone="no"?>
<!DOCTYPE svg PUBLIC "-//W3C//DTD SVG 20010904//EN"
 "http://www.w3.org/TR/2001/REC-SVG-20010904/DTD/svg10.dtd">
<svg version="1.0" xmlns="http://www.w3.org/2000/svg"
 width="800.000000pt" height="800.000000pt" viewBox="0 0 800.000000 800.000000"
 preserveAspectRatio="xMidYMid meet">
<metadata>
Created by potrace 1.14, written by Peter Selinger 2001-2017
</metadata>
<g transform="translate(0.000000,800.000000) scale(0.100000,-0.100000)"
fill="#000000" stroke="none">
<path d="M1114 5175 c-158 -24 -279 -72 -390 -156 -190 -142 -276 -425 -198
-657 52 -155 163 -279 324 -361 112 -57 189 -83 450 -151 335 -88 386 -107
446 -172 85 -90 68 -237 -38 -335 -91 -83 -198 -114 -373 -109 -265 8 -411
132 -469 398 -7 29 -8 30 -181 13 -22 -2 -78 -7 -125 -11 -47 -4 -92 -8 -100
-10 -8 -1 -22 -3 -31 -3 -15 -1 -15 -8 -2 -78 61 -334 232 -546 517 -643 129
-44 244 -58 446 -55 96 2 184 5 195 8 11 2 36 7 55 11 72 13 85 16 144 36 188
63 324 179 405 345 55 111 71 195 66 330 -6 171 -45 279 -142 394 -128 153
-269 215 -793 346 -126 32 -240 75 -298 112 -52 34 -92 107 -86 156 9 63 14
76 50 112 68 71 186 104 351 100 247 -5 333 -73 399 -313 3 -10 32 -11 136 -6
118 5 216 10 299 13 25 1 26 3 22 44 -34 320 -220 539 -523 618 -147 37 -397
49 -556 24z"/>
<path d="M2424 5133 c3 -10 17 -67 31 -128 14 -60 37 -157 51 -215 14 -58 36
-152 50 -210 14 -58 38 -159 54 -225 51 -210 100 -416 104 -438 2 -12 12 -51
21 -87 18 -69 23 -90 31 -130 3 -14 10 -43 16 -65 5 -22 12 -47 13 -55 5 -22
59 -251 141 -592 l26 -108 117 0 c277 -2 374 0 379 5 3 3 25 78 48 168 40 157
148 564 292 1102 38 143 78 292 88 332 19 76 28 83 39 30 4 -17 13 -52 21 -77
7 -25 56 -207 108 -405 52 -198 109 -412 126 -475 16 -63 48 -182 70 -265 79
-300 108 -407 112 -411 6 -5 478 -7 484 -2 3 4 130 512 140 563 2 11 13 58 25
105 11 47 22 92 24 100 4 15 85 348 131 539 14 57 27 111 29 120 2 9 33 136
69 283 36 147 68 278 70 290 3 13 12 52 21 88 9 36 18 73 20 83 4 17 6 26 21
77 5 20 2 20 -227 18 l-233 -3 -8 -30 c-4 -16 -10 -47 -13 -69 -4 -21 -11 -50
-16 -65 -6 -14 -10 -27 -9 -29 1 -1 -1 -17 -5 -35 -23 -110 -202 -930 -215
-982 -18 -75 -71 -320 -73 -337 -1 -10 -4 -18 -7 -18 -3 0 -47 168 -98 373
-51 204 -135 541 -187 747 -52 206 -97 384 -99 395 -12 59 6 56 -289 53 l-271
-3 -8 -30 c-5 -16 -20 -73 -34 -125 -14 -52 -27 -102 -29 -110 -68 -255 -96
-362 -105 -390 -5 -19 -35 -132 -66 -250 -31 -118 -73 -278 -94 -355 -20 -77
-45 -170 -55 -207 -17 -66 -29 -86 -32 -50 -1 9 -29 139 -62 287 -33 149 -62
284 -65 302 -3 17 -13 58 -21 90 -8 32 -17 72 -20 88 -8 46 -14 75 -19 93 -3
9 -8 29 -11 45 -9 45 -13 67 -41 187 -14 63 -28 126 -30 140 -3 14 -11 53 -19
86 -8 34 -16 74 -19 88 -3 14 -7 34 -9 44 -3 9 -8 29 -11 45 l-6 27 -236 0
c-220 0 -235 -1 -230 -17z"/>
<path d="M5642 4016 l0 -1135 136 -3 c75 -2 179 -2 230 0 l92 3 0 500 0 499
448 0 449 -1 -1 -490 c-1 -270 2 -495 5 -500 4 -7 180 -12 405 -9 l51 0 0
1135 0 1135 -231 0 -231 0 1 -445 1 -445 -448 0 -449 0 0 445 0 445 -229 0
-229 0 0 -1134z"/>
</g>
</svg>
